<svg xmlns="http://www.w3.org/2000/svg" width="1024" height="1024"><style>:root{--main-color:#303030;--bg-color:url(#ltbggd)}@media (prefers-color-scheme:dark){:root{--main-color:#fcfcfe;--bg-color:url(#dkbggd)}}</style><defs><linearGradient id="ltbggd" x1="1" x2="0" y1="0" y2="1"><stop offset="50%" stop-color="#00000000"/><stop offset="50%" stop-color="#b3d0ff"/></linearGradient><linearGradient id="dkbggd" x1="1" x2="0" y1="0" y2="1"><stop offset="50%" stop-color="#00000000"/><stop offset="50%" stop-color="#001d4d"/></linearGradient></defs><path fill="var(--bg-color)" d="M510.5 171.5h2.9c24 .6 40.9 12.6 58 28.3l8 6.6c4.5 3.7 8.8 7.5 13.1 11.5 3.3 3 6.6 5.8 10 8.6 4 3.2 7.8 6.5 11.5 10a212 212 0 0 0 14.4 12.3l7.6 6.7c3.4 3.1 7 6 10.5 9 4.5 3.6 8.7 7.4 13 11.3l7.9 6.6c4.5 3.7 8.8 7.5 13.1 11.5 3.3 3 6.6 5.8 10 8.6 4.5 3.6 8.8 7.5 13 11.4 3.2 3 6.5 5.8 9.9 8.5 5 4 9.7 8.4 14.4 12.8 4.3 4 8.8 7.8 13.5 11.6 3 2.4 5.9 5 8.7 7.7 4.6 4.3 9.4 8.3 14.3 12.3 3.8 3 7.3 6.4 11 9.7 2.6 2.4 5.3 4.7 8.1 7 4.6 3.6 8.9 7.4 13.1 11.4 3.2 3 6.5 5.8 9.9 8.5 5.7 4.6 11 9.6 16.4 14.6a330.8 330.8 0 0 0 14.5 12.8l1.8 1.6a11385.2 11385.2 0 0 1 11.2 9.5c15.8 13.5 31.3 30.4 33.7 52.1 1.2 19-3 40.7-15 56a142.8 142.8 0 0 1-18.2 16.7c-3.9 3.2-7.6 6.6-11.3 10a506.1 506.1 0 0 1-19.1 16.7c-3.8 3.2-7.5 6.5-11 9.8-4.5 4-9 7.8-13.6 11.5-2.9 2.4-5.6 4.8-8.3 7.3-4.4 4-9 7.8-13.6 11.6-9 7.3-17.6 15-26.3 22.5l-9.2 8a555.8 555.8 0 0 0-18 16 242 242 0 0 1-12.6 10.6c-3 2.5-6 5.1-8.8 7.8-4.6 4.3-9.3 8.3-14.2 12.2-3 2.5-6 5.1-8.8 7.8-4.6 4.3-9.4 8.3-14.3 12.3-2.8 2.3-5.5 4.7-8.2 7.2-4.4 4-9 8-13.8 11.7l-8.2 7.3c-4.4 4-9 8-13.8 11.7l-8.2 7.3c-4.5 4.1-9 8-13.8 11.8-3.5 2.9-6.8 6-10.2 9a205 205 0 0 1-7.8 6.5c-3.6 3-7 6-10.4 9.1A82.5 82.5 0 0 1 535 833l-2.8.9A75.8 75.8 0 0 1 460 815c-1-1-2.2-1.9-3.3-2.8l-21.9-18.9-7.7-6.7c-5.7-4.9-11.3-9.8-16.9-14.9a279 279 0 0 0-13.4-11.4c-3.8-3.2-7.4-6.5-11-9.8l-8.3-7c-4.8-3.8-9.3-7.9-13.8-12-2.6-2.4-5.3-4.7-8.1-7-4.6-3.6-8.9-7.4-13.1-11.4a181 181 0 0 0-9.9-8.5c-4.4-3.5-8.5-7.2-12.6-11.1-5-4.7-10-9.1-15.4-13.4a156 156 0 0 1-7.6-6.6c-3.3-3-6.7-6-10.2-8.8a621 621 0 0 1-17-14.4l-11.1-9.5-14.5-12.8-13.4-11.8a584 584 0 0 1-16.5-14.4 219 219 0 0 0-10.7-9.2 216 216 0 0 1-11.6-10.1c-4.6-4.3-9.4-8.3-14.3-12.3-4.4-3.6-8.6-7.4-12.7-11.2l-2.6-2.3a65.4 65.4 0 0 1-21.7-43.8c-.4-14.8 0-27.4 6.3-40.9l1.3-2.9A94 94 0 0 1 172 443a5560.5 5560.5 0 0 0 16.3-13.8l15.3-12.8c4.7-3.8 9.2-7.8 13.7-12a187 187 0 0 1 8-6.7c5.8-4.6 11.1-9.6 16.5-14.7 3-2.8 6.1-5.6 9.3-8.3l6.5-5.9 14.2-12.4 10.4-9a299 299 0 0 1 13-11.1c3.6-3 7-6 10.3-9 2.6-2.4 5.2-4.6 8-6.7 4.7-3.9 9.2-8 13.8-12.1 2.6-2.4 5.3-4.7 8-6.9 4.3-3.4 8.3-7 12.2-10.6a306 306 0 0 1 14.9-12.9 156 156 0 0 0 7.6-6.6c3.4-3 6.8-6 10.4-8.9 4.5-3.7 8.8-7.5 13.1-11.5 3.2-3 6.5-5.8 10-8.5 4.1-3.4 8-7 12-10.6a256 256 0 0 1 14.8-12.8c2.8-2.3 5.5-4.7 8.2-7.2 4.5-4.1 9-8 13.8-11.8 2.6-2.1 5-4.4 7.5-6.7a76.8 76.8 0 0 1 50.7-22Z"/><path fill="var(--main-color)" d="M510.5 171.5h2.9c24 .6 40.9 12.6 58 28.3l8 6.6c4.5 3.7 8.8 7.5 13.1 11.5a190 190 0 0 0 10 8.6c4 3.2 7.8 6.5 11.5 10 4.6 4.3 9.4 8.3 14.4 12.3l7.6 6.7a234 234 0 0 0 10.5 9c4.5 3.6 8.7 7.4 13 11.3l7.9 6.6c4.5 3.7 8.8 7.5 13.1 11.5a190 190 0 0 0 10 8.6c4.5 3.6 8.8 7.5 13 11.4 3.2 3 6.5 5.8 9.9 8.5 5 4 9.7 8.4 14.4 12.8 4.3 4 8.8 7.8 13.5 11.6 3 2.4 5.9 5 8.7 7.7 4.6 4.3 9.4 8.3 14.3 12.3 3.8 3 7.3 6.4 11 9.7 2.6 2.4 5.3 4.7 8.1 7 4.6 3.6 8.9 7.5 13.1 11.4 3.2 3 6.5 5.8 9.9 8.5 5.7 4.6 11 9.6 16.4 14.6l11.2 10 3.3 2.8 1.8 1.6 3.8 3.2 7.4 6.3c15.8 13.5 31.3 30.4 33.7 52.1 1.2 19-3 40.7-15 56a142.7 142.7 0 0 1-18.2 16.7c-3.9 3.2-7.6 6.6-11.3 10-4.5 4.1-9 8-13.7 12l-5.4 4.7a418 418 0 0 0-11 9.8c-4.5 4-9 7.8-13.6 11.5-2.9 2.4-5.6 4.8-8.3 7.3-4.4 4-9 7.8-13.6 11.6-9 7.3-17.6 15-26.3 22.5a1249 1249 0 0 1-9.2 8 556 556 0 0 0-18 16c-4.1 3.7-8.3 7.1-12.6 10.6-3 2.5-6 5.1-8.8 7.8a259 259 0 0 1-14.2 12.2c-3 2.5-6 5.1-8.8 7.8-4.6 4.3-9.4 8.3-14.3 12.3-2.8 2.3-5.5 4.7-8.2 7.2-4.4 4-9 8-13.8 11.7l-8.2 7.3c-4.4 4-9 8-13.8 11.7l-8.2 7.3c-4.5 4.1-9 8-13.8 11.8-3.5 2.9-6.8 6-10.2 9l-7.8 6.5a158 158 0 0 0-10.4 9.1A82.5 82.5 0 0 1 535 833l-2.8.9A75.7 75.7 0 0 1 460 815l-3.3-2.8-21.9-18.9a2940 2940 0 0 0-7.7-6.7 717 717 0 0 1-16.8-14.9c-4.4-4-9-7.7-13.5-11.4-3.8-3.2-7.4-6.5-11-9.8l-8.3-7c-4.8-3.8-9.3-7.9-13.8-12-2.6-2.4-5.3-4.7-8.1-7-4.6-3.6-8.9-7.5-13.1-11.4a181 181 0 0 0-9.9-8.5c-4.4-3.5-8.5-7.2-12.6-11.1a255 255 0 0 0-15.4-13.4 156 156 0 0 1-7.6-6.6 231 231 0 0 0-10.2-8.8 621 621 0 0 1-17-14.4l-11.1-9.6a661 661 0 0 1-14.5-12.7l-13.4-11.8c-5.6-4.7-11.1-9.4-16.5-14.4a219 219 0 0 0-10.7-9.2 216 216 0 0 1-11.6-10.1c-4.6-4.3-9.4-8.3-14.3-12.3-4.4-3.6-8.6-7.4-12.7-11.2l-2.6-2.3a65.4 65.4 0 0 1-21.7-43.8c-.4-14.8 0-27.4 6.3-40.9l1.3-2.9A94 94 0 0 1 172 443l4.5-3.8 5-4.3 6.8-5.7a818 818 0 0 1 15.3-12.8c4.7-3.8 9.2-7.8 13.7-12l8-6.7c5.8-4.6 11.1-9.6 16.5-14.7a304 304 0 0 1 9.3-8.3l6.5-5.9a656 656 0 0 1 14.2-12.4 430 430 0 0 0 10.4-9c4.2-4 8.6-7.5 13-11.1 3.6-3 7-6 10.3-9 2.6-2.4 5.2-4.6 8-6.7 4.7-3.9 9.2-8 13.8-12.1a193 193 0 0 1 8-6.9c4.3-3.4 8.3-7 12.2-10.6a306 306 0 0 1 14.9-12.9 156 156 0 0 0 7.6-6.6 222 222 0 0 1 10.4-8.9 251 251 0 0 0 13.1-11.5 186 186 0 0 1 10-8.5 212 212 0 0 0 12-10.6 256 256 0 0 1 14.8-12.8 199 199 0 0 0 8.2-7.2c4.5-4.1 9-8 13.8-11.8 2.6-2.1 5-4.4 7.5-6.7a76.8 76.8 0 0 1 50.7-22M481 214l-3.2 2.7a1421 1421 0 0 0-9 7.7 1124 1124 0 0 1-5.4 4.7c-5.5 4.6-10.8 9.3-16 14-4.5 4.1-9 7.9-13.6 11.6-3.8 3.2-7.4 6.5-11 9.8-2.7 2.4-5.4 4.7-8.2 6.9a217 217 0 0 0-12.1 10.6 306 306 0 0 1-14.9 12.9 156 156 0 0 0-7.6 6.6 216 216 0 0 1-10.3 8.8c-4.8 3.9-9.3 8-13.9 12.3-4.2 3.9-8.6 7.6-13.1 11.2-2.8 2.3-5.5 4.7-8.2 7.2a217 217 0 0 1-11 9.4c-4 3.3-7.7 6.6-11.5 10.1-4.6 4.3-9.4 8.3-14.3 12.3-3.8 3-7.4 6.4-11 9.7-2.6 2.4-5.3 4.6-8 6.8-4.4 3.6-8.6 7.3-12.7 11.2a253 253 0 0 1-15.4 13.3c-2.8 2.3-5.4 4.7-8.1 7.2-4.4 4-9 8-13.8 11.7l-11 9.8c-2.6 2.4-5.3 4.7-8 6.9-5 3.9-9.5 8-14 12.3l-9 8a47 47 0 0 0-17.9 31.7A47 47 0 0 0 172 520l.8 2c6 13.9 21 24.5 32.6 33.8l7.6 6.7a234 234 0 0 0 10.5 9c4.5 3.6 8.7 7.4 13 11.3a297.3 297.3 0 0 1 22 19c8.5 7.7 17.4 15.2 26.3 22.7a3838 3838 0 0 1 21.6 18.6l11 9.6c4.9 4 9.6 8.2 14.3 12.5a214 214 0 0 0 10.7 9.2c4.2 3.4 8.2 7 12.1 10.6a257 257 0 0 0 14.6 12.6c8.8 7.2 17.3 14.8 25.7 22.4 4.4 4 9 8 13.5 11.8a839 839 0 0 1 18.5 16.2c4.4 4 9 8 13.5 11.8l3.6 3 1.8 1.6a457 457 0 0 1 10.5 9.3 279 279 0 0 0 13 11c2.5 2 4.9 4.2 7.3 6.5 10.1 9.6 19.5 16.2 33.8 16.1h2.5c17-.3 27-9.7 39.2-20.3l3.7-3.2 7.5-6.5 11.1-9.5a498 498 0 0 0 11.9-10.5 226 226 0 0 1 10.2-8.7c4-3.2 7.8-6.6 11.6-10.1 4.6-4.3 9.4-8.3 14.4-12.3l7.6-6.7a222 222 0 0 1 10.4-8.9c5.1-4.1 10-8.6 14.8-13a607 607 0 0 1 19.2-16.8 2796.8 2796.8 0 0 0 28-24 499 499 0 0 0 11.8-10.5 343 343 0 0 1 13-11 215 215 0 0 0 7.8-6.8c4.3-4 8.8-7.6 13.3-11.2l10.2-9 7.9-6.7a251 251 0 0 0 13.1-11.5 186 186 0 0 1 10-8.5c4.7-3.9 9.2-8 13.7-12.2a180 180 0 0 1 10.2-8.8c5.1-4.1 9.9-8.5 14.6-13 3-2.8 6.1-5.6 9.4-8.2a52 52 0 0 0 17.9-33.8c.6-13-6.3-23.2-14.5-32.6a179.1 179.1 0 0 0-20-18.1c-5.5-4.6-10.7-9.4-16-14.4-4.5-4.3-9-8.4-13.8-12.5l-3.5-3-7.5-6.5-2-1.8-5.8-5-3.8-3.3-1.8-1.6a1793 1793 0 0 0-11-9.5c-4.9-4-9.6-8.2-14.3-12.5a219 219 0 0 0-10.7-9.2 245 245 0 0 1-13.1-11.5 190 190 0 0 0-10-8.6c-4.5-3.6-8.8-7.5-13-11.4a181 181 0 0 0-9.9-8.5c-4.4-3.5-8.5-7.2-12.6-11.1a255 255 0 0 0-15.4-13.4 156 156 0 0 1-7.6-6.6 234 234 0 0 0-10.5-9c-4.5-3.6-8.7-7.4-13-11.3a217 217 0 0 0-8-6.6 287 287 0 0 1-13.8-12.1c-2.6-2.4-5.3-4.7-8-6.9a217 217 0 0 1-12.2-10.6 306 306 0 0 0-14.9-12.9 156 156 0 0 1-7.6-6.6 287 287 0 0 0-13.4-11.4l-6.7-5.8c-10.8-9.6-22.5-10-36.3-9.5-9.5.8-16.6 6.1-23.6 12.2"/><path fill="var(--main-color)" d="M523.3 395.6h6.8l6.9-.1h4.4l2-.1c3.4 0 5.4.5 8.3 2.3 3.8 4.5 5.3 10.7 7.2 16.3l1.3 3.8a1666 1666 0 0 1 3.4 10l3.5 10.2a4686 4686 0 0 1 6.9 20c1.8-2.7 2.7-4.7 3.8-7.7l1-2.9c.4-1 .8-2 1.1-3.2l1.2-3.2a1001.3 1001.3 0 0 0 9-25.8l1.3-4.2a463 463 0 0 1 2-5.8l1.2-3.4c1.7-3.4 2.9-4.4 6.4-5.8 3.5-.4 3.5-.4 7.4-.4h21.4c3.2.4 3.2.4 5.1 1.7 1.5 2.3 1.2 4 .7 6.5-1.3 5-3.3 9.6-5.2 14.3l-1.4 3.7a1133 1133 0 0 1-13 30.8l-1 2.4a3444 3444 0 0 1-9.6 22l-3.9 8.8-1.4 3.1c-3 6.7-4.5 11.9-2.1 19 1.4 3.6 3 7.2 4.6 10.7l1.8 4.2a2608 2608 0 0 0 3 7l14.1 32.9a11862 11862 0 0 0 6 14.2l2.8 6.3 2.4 5.9a232 232 0 0 0 2.8 6.1l1.4 3.2 1.4 2.9c.9 3.3.4 4.7-1.3 7.7-3.1 1.6-6.4 1.1-9.9 1.1h-14.7L600 610c-5-9.1-8.4-18.8-12-28.6l-1.7-4.9c-2.4-6.5-4.8-13-7-19.5l-.9-2.4-1.5-4.5c-1-3.3-1-3.3-2.9-6.1a889.8 889.8 0 0 0-13.5 35.9l-.8 2.5a2053 2053 0 0 0-4.3 12.5l-1.6 4.6-.7 2.2c-2.2 6.3-2.2 6.3-5.1 8.3-3.2.5-3.2.5-7.1.7h-2.1a413 413 0 0 1-6.8.3h-2.4l-7 .2h-2.1c-3.7 0-5.3 0-8.5-2.2-1-6.6 1.6-12 4-18l1.4-3.1 4.1-10.1 2.7-6.7a2182 2182 0 0 1 13-31.5c3-7 5.8-13.9 8.6-20.9a443 443 0 0 1 1.6-4l2.4-5.9 1.3-3.5c1.9-7-1-13-3.7-19.5l-1.1-2.7-3.7-8.7-2.5-6.1a3372 3372 0 0 0-13.6-32.1L524 430l-5.1-11.8-2.3-5.4-1-2.4a20.6 20.6 0 0 1-2.5-12.4c3.6-2.4 6.2-2.3 10.3-2.4m-104.7 1.2h13.2a6053 6053 0 0 1 14.5 0 2666.7 2666.7 0 0 0 26.4-.2h13.3l2.3-.1c5.1 0 5.1 0 7.6 2.3 1.4 3 1.4 5.3 1.4 8.6V419c-.1 9.6-.1 9.6-2.4 13-2 .4-2 .4-4.4.4h-2.9l-3 .1H482l-10.1.2-22.9.3v50l22.6.3h6.5c3.5.2 5.8.6 8.9 2.3 2.6 3.2 2.6 5 2.6 9v3.9l-.1 2v6c-.2 11.5-.2 11.5-2.5 14.5-4 2.3-8.2 2.3-12.7 2.4h-2l-7.1.2-16.2.4-1 50 29.3-.5h8.3c6.7 0 6.7 0 10 2.6 1.6 3.3 1.9 5.5 1.9 9.2v3.5l-.1 3.8v3.7c-.1 10.2-.1 10.2-2.4 13.7-3 1.5-6.3 1.1-9.7 1.1h-27.4l-14.8.1h-26.7c-5.2 0-5.2 0-7.4-2.2-.3-3-.3-3-.4-6.9V600l-.2-7.1-.1-5c-.4-17.8-.5-35.4-.5-53.1V408.4c.7-9.5 1.9-11.5 10.9-11.6m-111.8-1h30.5a4140 4140 0 0 0 29.3-.1h17.1c5.8 0 5.8 0 8 1.6 1.9 2.6 1.6 4.7 1.6 7.9v11.4c0 11.8 0 11.8-3.4 17.4-2.7 1.3-4.9 1.2-7.9 1.3l-3.5.1-3.7.2H371q-4.5.3-9.1.4v2.7l.3 64v30.9q.2 13.4.2 27v27.6l.1 5v10.5c-.8 4.2-2.3 5.7-5.6 8.3-3.3.6-3.3.6-7 .6h-2l-4-.1h-6.3c-10.2-.2-10.2-.2-13.7-2.5-1.2-3.5-1.1-6.2-1.2-9.9V586l-.1-13.8v-14.4l-.2-27.2-.2-31-.3-63.6h-2.5l-9.3-.3a747 747 0 0 0-6 0l-3.8-.2H297c-2.9-.5-2.9-.5-4.8-1.8-1.9-2.8-1.5-5.6-1.5-8.9v-21.6c.4-3.2.4-3.2 1.7-5 4.3-3 9.5-2.4 14.6-2.4m350.2-1.1H730c5 0 8.7.7 12.9 3.5 1.9 2.8 1.6 5.4 1.6 8.8v2a431 431 0 0 1 0 4.3v6.6c-.1 10.7-.1 10.7-2.4 14.1-3.4 1-6.7 1.1-10.3 1.1h-9.1l-7.6-.1v2.7l-.2 64.8-.1 31.4-.1 27.3a3932 3932 0 0 0-.1 14.4v13.7a789 789 0 0 0 0 5l-.1 6.8v3.8c-.4 3.1-.4 3.1-1.7 5-2.8 1.8-5.4 1.5-8.7 1.5h-6.3l-6.6.1h-8c-3.1-.5-3.1-.5-4.8-2-1.8-3.4-1.7-5.8-1.7-9.5v-14.3l.1-13.8v-14.5a12444.7 12444.7 0 0 1 .1-58.4l.2-64h-2.5l-9.3.2h-9.8l-3.5.1c-2.9-.3-2.9-.3-4.8-1.6-2.6-4-2.2-9-2.2-13.6v-16.5a20 20 0 0 1 1.1-6.6c3.8-2.5 6.8-2.3 11.2-2.3"/></svg>